<?xml version="1.0" standalone="no"?>
<!DOCTYPE svg PUBLIC "-//W3C//DTD SVG 1.1//EN" "http://www.w3.org/Graphics/SVG/1.1/DTD/svg11.dtd" >
<svg xmlns="http://www.w3.org/2000/svg">
<metadata>Generated by IcoMoon</metadata>
<defs>
<font id="social-icon" horiz-adv-x="1024">
<font-face units-per-em="1024" ascent="960" descent="-64" />
<missing-glyph horiz-adv-x="1024" />
<glyph unicode="&#x20;" horiz-adv-x="512" d="" />
<glyph unicode="&#xe900;" d="M62.496 723.952v-350.12l60.232 33.884v282.356l-60.232 33.88z" />
<glyph unicode="&#xe901;" d="M2.26 407.72v421.64l357.644-203.292v-71.532l-297.408 169.416v-350.12l-60.24 33.888z" />
<glyph unicode="&#xe902;" d="M725.080 829.364v-421.644l-240.94-135.528-60.236 37.648 240.944 135.528v282.352l-304.944-173.18v71.532l365.18 203.288z" />
<glyph unicode="&#xe903;" d="M664.848 863.248l-301.176-169.412-301.176 169.412-60.24-33.88 357.648-203.296 365.18 203.288-60.244 33.884z" />
<glyph unicode="&#xe904;" d="M604.612 693.836v-214.588l60.236-33.88v282.344l-60.24-33.88z" />
<glyph unicode="&#xe905;" d="M303.436 309.836l301.176 169.412 60.236-33.88-240.944-135.532 237.18-135.532 240.94 135.532 60.236-33.88-301.176-169.416-357.648 203.296z" />
<glyph unicode="&#xe906;" d="M303.436 309.836v-71.532l357.648-203.292v71.528l-357.648 203.3zM962.26 275.952v210.824l-60.24 33.88v-210.82l60.24-33.88z" />
<glyph unicode="&#xe907;" d="M661.080 106.54l301.18 169.412v210.824l60.236 33.88v-282.352l-361.412-203.292v71.528z" />
<glyph unicode="&#xe908;" d="M1022.496 520.66l-60.24-33.88-60.232 33.88 60.236 33.88 60.236-33.88z" />
<glyph unicode="&#xe909;" d="M962.26 554.54v71.532l60.236 33.88v-71.528l-60.24-33.88z" />
<glyph unicode="&#xe90a;" d="M962.26 626.072v-71.532l-60.24 33.88v71.536l60.24-33.88z" />
<glyph unicode="&#xe90b;" d="M1022.496 659.952l-60.24-33.88-60.232 33.88 60.236 33.88 60.236-33.88z" />
<glyph unicode="&#xe90c;" glyph-name="nodejs-icon" horiz-adv-x="930" d="M423.152 947c25.28 14.47 58.208 14.536 83.467 0 127.074-71.803 254.188-143.494 381.24-215.341 23.897-13.461 39.882-40.056 39.638-67.591v-431.997c0.178-28.676-17.386-55.906-42.598-69.062-126.656-71.408-253.248-142.902-379.882-214.31-25.803-14.754-59.392-13.617-84.389 2.346-37.972 22.012-76.008 43.916-113.984 65.906-7.76 4.626-16.507 8.308-21.987 15.832 4.844 6.529 13.504 7.342 20.542 10.193 15.85 5.040 30.408 13.13 44.969 20.981 3.682 2.52 8.177 1.554 11.707-0.701 32.47-18.617 64.654-37.775 97.233-56.215 6.95-4.012 13.987 1.314 19.928 4.626 124.289 70.246 248.73 140.226 372.997 210.494 4.604 2.215 7.15 7.103 6.776 12.146 0.087 142.507 0.022 285.039 0.044 427.545 0.527 5.723-2.785 10.984-7.96 13.327-126.217 71.081-252.369 142.271-378.564 213.37-2.082 1.448-4.665 2.314-7.449 2.314-2.771 0-5.341-0.857-7.461-2.32-126.151-71.092-252.281-142.347-378.477-213.424-5.156-2.346-8.617-7.52-8.003-13.265 0.022-142.507 0-285.039 0-427.567-0.030-0.321-0.048-0.694-0.048-1.071 0-4.795 2.792-8.938 6.838-10.892 33.748-19.128 67.467-38.090 101.165-57.121 18.984-10.218 42.293-16.29 63.208-8.461 18.457 6.62 31.395 25.455 31.043 45.052 0.174 141.675-0.087 283.372 0.131 425.025-0.461 6.289 5.505 11.486 11.62 10.894 16.181 0.109 32.383 0.218 48.564-0.044 6.754 0.153 11.402-6.62 10.567-12.956-0.065-142.572 0.174-285.148-0.109-427.72 0.044-37.997-15.567-79.342-50.713-97.934-43.298-22.43-96.815-17.673-139.591 3.835-37.031 18.483-72.37 40.295-108.744 60.096-25.277 13.083-42.754 40.423-42.576 69.076v432.001c-0.265 28.106 16.355 55.183 40.996 68.448 126.635 71.466 253.248 142.986 379.86 214.484zM533.627 647.753c55.231 3.555 114.358 2.106 164.058-25.103 38.48-20.85 59.813-64.61 60.492-107.36-1.075-5.766-7.103-8.947-12.608-8.551-16.025 0.022-32.053-0.218-48.077 0.109-6.798-0.261-10.748 6.006-11.602 12.016-4.604 20.455-15.759 40.713-35.012 50.579-29.554 14.797-63.822 14.053-96.049 13.744-23.527-1.249-48.825-3.286-68.757-17.121-15.302-10.48-19.95-31.635-14.489-48.673 5.149-12.234 19.271-16.181 30.825-19.819 66.56-17.408 137.093-15.676 202.382-38.585 27.031-9.339 53.473-27.495 62.725-55.797 12.103-37.932 6.798-83.271-20.19-113.722-21.885-25.059-53.76-38.698-85.551-46.105-42.293-9.43-86.183-9.67-129.133-5.483-40.386 4.604-82.414 15.215-113.591 42.732-26.66 23.149-39.682 59.218-38.389 94.030 0.309 5.879 6.162 9.979 11.794 9.496 16.137 0.131 32.274 0.174 48.411-0.022 6.445 0.461 11.224-5.109 11.554-11.184 2.978-19.489 10.302-39.943 27.296-51.498 32.797-21.159 73.95-19.71 111.503-20.302 31.112 1.38 66.037 1.797 91.426 22.361 13.396 11.729 17.364 31.352 13.744 48.233-3.922 14.252-18.831 20.894-31.635 25.237-65.707 20.785-137.027 13.243-202.098 36.748-26.417 9.336-51.963 26.987-62.112 54.127-14.162 38.411-7.673 85.922 22.143 115.345 29.071 29.268 71.037 40.539 110.937 44.573z" />
<glyph unicode="&#xe90d;" glyph-name="rethinkdb" d="M0 372.012v10.59c0 2.162 1.080 3.242 3.24 3.242h11.24v112.386h-11.24c-2.16 0-3.24 1.080-3.24 3.24v10.81c0 2.16 1.080 3.24 3.24 3.24 18.444 0.866 33.79 1.3 46.036 1.3 37.462 0 56.192-13.4 56.192-40.2 0-9.366-2.376-17.616-7.132-24.748-4.754-7.132-11.094-12.57-19.020-16.316l25.288-49.71h13.4c2.16 0 3.242-1.080 3.242-3.24v-10.592c0-2.16-1.080-3.24-3.24-3.24h-28.532c-2.16 0-3.746 0.936-4.756 2.808l-29.39 58.138h-4.322c-4.612 0-8.718 0.216-12.32 0.648v-44.52h13.616c2.16 0 3.242-1.082 3.242-3.244v-10.59c0-2.16-1.080-3.24-3.24-3.24h-49.064c-2.16 0-3.242 1.080-3.242 3.24zM38.686 498.88v-52.086c1.154-0.144 2.81-0.216 4.972-0.216 11.67 0 20.748 2.306 27.23 6.916 6.484 4.61 9.726 11.526 9.726 20.748 0 16.426-11.38 24.638-34.148 24.638h-7.78zM181.762 366.18c-17.146 0-29.718 5.006-37.714 15.020-7.998 10.014-11.996 23.27-11.996 39.766 0 16.5 4.25 30.15 12.752 40.956 8.5 10.806 20.748 16.21 36.74 16.21 7.926 0 14.734-1.476 20.424-4.43 5.692-2.954 10.050-6.952 13.076-11.996 5.764-9.798 8.646-21.108 8.646-33.932 0-6.050-0.288-9.364-0.866-9.94-0.576-0.578-1.656-0.866-3.24-0.866h-63.54c0.72-10.374 3.276-18.406 7.67-24.098 4.396-5.69 11.996-8.536 22.8-8.536 7.926 0 16.068 1.872 24.424 5.62 2.018 1.008 3.458 0.432 4.322-1.73l4.106-9.94c0.72-1.73 0.072-3.172-1.944-4.324-9.51-5.188-21.396-7.78-35.66-7.78zM156.042 432.96h44.954c0.288 18.012-6.772 27.018-21.18 27.018-8.5 0-14.516-2.702-18.046-8.106-3.53-5.402-5.44-11.706-5.728-18.91zM273.182 458.032v-54.464c0-6.772 0.864-11.67 2.594-14.696 1.728-3.026 4.97-4.54 9.726-4.54 4.754 0 9.364 1.010 13.832 3.028 1.584 0.576 2.736 0 3.458-1.73l3.89-9.94c0.144-0.434 0.216-1.046 0.216-1.84 0-0.79-0.72-1.62-2.16-2.484-6.918-3.458-15.13-5.186-24.64-5.186-12.824 0-21.252 3.314-25.286 9.94-2.882 4.324-4.54 8.502-4.972 12.536-0.55 5.064-0.864 10.937-0.864 16.884 0 0.143 0 0.286 0.001 0.428v52.062h-12.32c-2.16 0-3.24 1.080-3.24 3.242v11.24c0 2.16 1.080 3.24 3.24 3.24h12.32v29.178c0 2.16 1.080 3.24 3.24 3.24h17.724c2.16 0 3.242-1.080 3.242-3.24v-29.178h21.828c2.16 0 3.242-1.080 3.242-3.24v-11.24c0-2.16-1.080-3.24-3.24-3.24h-21.832zM314.246 515.52v11.24c0 2.16 1.080 3.24 3.24 3.24h32.636c2.16 0 3.242-1.080 3.242-3.24v-66.568c8.068 11.96 19.236 17.938 33.5 17.938 22.332 0 33.5-12.246 33.5-36.74v-55.546h12.75c2.16 0 3.242-1.080 3.242-3.24v-10.592c0-2.16-1.080-3.24-3.24-3.24h-47.332c-2.162 0-3.242 1.080-3.242 3.24v10.59c0 2.162 1.080 3.242 3.24 3.242h10.376v44.74c0 9.076-1.154 15.704-3.46 19.882-2.304 4.18-7.060 6.268-14.264 6.268s-13.182-2.16-17.938-6.484c-4.754-4.322-7.132-9.22-7.132-14.696v-49.71h13.184c2.16 0 3.24-1.080 3.24-3.24v-10.592c0-2.16-1.080-3.24-3.24-3.24h-49.060c-2.16 0-3.242 1.080-3.242 3.24v10.59c0 2.162 1.080 3.242 3.24 3.242h11.672v126.436h-11.67c-2.16 0-3.242 1.080-3.242 3.24zM483.904 385.844h13.616c2.16 0 3.24-1.080 3.24-3.24v-10.592c0-2.16-1.080-3.24-3.24-3.24h-51.44c-2.16 0-3.24 1.080-3.24 3.24v10.59c0 2.162 1.080 3.242 3.24 3.242h13.618v72.186h-11.67c-2.162 0-3.242 1.080-3.242 3.242v11.24c0 2.16 1.080 3.24 3.24 3.24h32.636c2.16 0 3.24-1.080 3.24-3.24v-86.668zM453.646 506.010c0 4.466 1.406 8.176 4.214 11.13 2.81 2.954 6.556 4.432 11.24 4.432 4.682 0 8.428-1.478 11.238-4.432s4.214-6.664 4.214-11.13c0-4.466-1.44-8.14-4.322-11.022s-6.664-4.322-11.346-4.322c-4.684 0-8.394 1.44-11.132 4.32-2.736 2.884-4.106 6.558-4.106 11.024zM508.326 461.056v11.454c0 2.162 1.080 3.242 3.24 3.242h29.394c1.874 0 3.026-1.080 3.46-3.24l1.944-12.536c8.068 12.102 19.596 18.154 34.58 18.154 22.332 0 33.5-12.246 33.5-36.74v-55.546h12.534c2.16 0 3.242-1.080 3.242-3.24v-10.592c0-2.16-1.080-3.24-3.24-3.24h-47.116c-2.162 0-3.242 1.080-3.242 3.24v10.59c0 2.162 1.080 3.242 3.24 3.242h10.376v44.74c0 9.076-1.154 15.704-3.46 19.882-2.304 4.18-7.060 6.268-14.264 6.268s-13.182-2.16-17.938-6.484c-4.754-4.322-7.132-9.22-7.132-14.696v-49.71h13.4c2.16 0 3.242-1.080 3.242-3.24v-10.592c0-2.16-1.080-3.24-3.24-3.24h-49.062c-2.16 0-3.242 1.080-3.242 3.24v10.59c0 2.162 1.080 3.242 3.24 3.242h11.456v72.186h-11.67c-2.16 0-3.242 1.008-3.242 3.026zM677.984 526.76v-86.234h11.022l33.5 32.852c1.584 1.584 3.458 2.376 5.62 2.376h16.856c2.162 0 3.242-1.080 3.242-3.24v-11.24c0-2.16-1.080-3.24-3.24-3.24h-13.184l-23.774-23.126 29.608-49.060h12.752c2.16 0 3.24-1.082 3.24-3.244v-10.59c0-2.16-1.080-3.24-3.24-3.24h-27.88c-2.018 0-3.674 0.936-4.972 2.808l-32.418 52.302h-7.132v-38.038h11.454c2.16 0 3.242-1.080 3.242-3.24v-10.592c0-2.16-1.080-3.24-3.24-3.24h-47.116c-2.162 0-3.242 1.080-3.242 3.24v10.59c0 2.162 1.080 3.242 3.24 3.242h11.456v126.648h-11.67c-2.162 0-3.242 1.080-3.242 3.24v11.026c0 2.16 1.080 3.242 3.24 3.242h32.636c2.16 0 3.242-1.080 3.242-3.24zM767.676 515.52c18.442 0.866 32.13 1.3 41.064 1.3 8.932 0 15.596-0.18 19.992-0.542 4.394-0.36 9.4-1.116 15.020-2.27 5.62-1.152 10.626-2.7 15.020-4.646 4.396-1.946 8.826-4.72 13.292-8.32 4.391-3.542 8.118-7.681 11.117-12.332 6.749-11.154 10.063-25.274 10.063-42.564 0-26.080-7.204-45.494-21.612-58.246s-34.076-19.128-59.002-19.128h-44.954c-2.16 0-3.242 1.080-3.242 3.242v10.59c0 2.162 1.080 3.242 3.24 3.242h11.24v112.168h-11.24c-2.16 0-3.24 1.080-3.24 3.24v11.026c0 2.16 1.080 3.24 3.24 3.24zM854.234 401.192c8.716 10.374 13.076 24.566 13.076 42.576s-4.070 31.7-12.212 41.064c-8.14 9.366-20.856 14.048-38.146 14.048h-13.832v-113.25h14.264c15.85 0 28.132 5.188 36.85 15.56zM910.966 372.014v10.59c0 2.162 1.080 3.242 3.242 3.242h11.456v112.168h-11.24c-2.16 0-3.24 1.080-3.24 3.24v11.026c0 2.306 1.080 3.458 3.24 3.458 17.29 0.72 33.716 1.080 49.278 1.080 15.56 0 27.988-2.99 37.28-8.968 9.294-5.98 13.94-14.518 13.94-25.612 0-8.068-2.484-15.092-7.456-21.072-4.97-5.98-10.84-10.338-17.614-13.076 11.094-1.728 19.56-5.834 25.394-12.32 5.836-6.482 8.754-14.406 8.754-23.772 0-12.248-4.54-22.152-13.616-29.718-9.078-7.564-21.108-11.85-36.092-12.86-6.196-0.432-16.138-0.648-29.826-0.648h-30.258c-2.16 0-3.24 1.080-3.24 3.242zM949.87 436.854v-51.44h9.724c12.68 0 22.514 2.018 29.5 6.052 6.99 4.034 10.484 11.022 10.484 20.964 0 16.28-11.382 24.422-34.148 24.422h-15.56zM949.87 499.314v-44.524h8.212c21.324 0 31.986 7.42 31.986 22.26 0 8.36-2.594 14.158-7.78 17.4-5.188 3.24-12.608 4.862-22.26 4.862h-10.16z" />
<glyph unicode="&#xe90e;" horiz-adv-x="886" d="M442.888 958.422l-441.891-255.125v-510.253l441.891-255.128 441.894 255.128v510.253l-441.894 255.125z" />
<glyph unicode="&#xe90f;" horiz-adv-x="886" d="M442.895 699.631l-219.136-126.516v-253.039l219.136-126.519 219.136 126.519v253.039l-219.136 126.516z" />
<glyph unicode="&#xe910;" horiz-adv-x="886" d="M442.778 960l-442.811-256.865 442.811-241.1 442.811 239.526-442.811 258.439zM442.778 428.942l-442.811-234.797 442.811-255.284 441.233 256.861-441.233 233.216z" />
<glyph unicode="&#xe911;" glyph-name="redux" d="M709.524 257.068c37.788 3.912 66.456 36.488 65.152 75.584-1.3 39.092-33.88 70.368-72.972 70.368h-2.604c-40.4-1.304-71.672-35.184-70.368-75.58 1.304-19.548 9.12-36.488 20.848-48.216-44.304-87.312-112.064-151.164-213.704-204.592-69.064-36.488-140.732-49.52-212.4-40.4-58.64 7.82-104.248 33.88-132.92 76.888-41.696 63.852-45.604 132.92-10.42 201.984 24.76 49.52 63.848 86.008 88.608 104.252-5.212 16.94-13.032 45.608-16.94 66.456-188.948-136.828-169.4-321.872-112.064-409.18 43-65.16 130.308-105.556 226.736-105.556 26.060 0 52.12 2.608 78.184 9.12 166.796 32.58 293.196 131.62 364.864 278.872zM938.868 418.656c-99.036 115.98-244.98 179.832-411.776 179.832h-20.848c-11.728 23.456-36.488 39.096-63.852 39.096h-2.608c-40.392-1.304-71.664-35.184-70.364-75.584 1.304-39.092 33.88-70.368 72.972-70.368h2.604c28.668 1.304 53.428 19.548 63.852 44.308h23.456c99.036 0 192.856-28.668 277.56-84.704 65.152-43.004 112.064-99.040 138.124-166.8 22.152-54.732 20.848-108.16-2.608-153.772-36.484-69.064-97.728-106.856-178.52-106.856-52.124 0-101.64 15.64-127.704 27.368-14.332-13.032-40.396-33.88-58.64-46.916 56.036-26.060 113.372-40.396 168.1-40.396 125.096 0 217.616 69.068 252.8 138.132 37.788 75.584 35.18 205.896-62.548 316.66zM276.9 234.92c1.304-39.096 33.88-70.368 72.972-70.368h2.608c40.396 1.3 71.668 35.184 70.364 75.58-1.3 39.096-33.88 70.368-72.972 70.368h-2.604c-2.608 0-6.52 0-9.12-1.3-53.428 88.612-75.58 185.040-67.76 289.292 5.208 78.188 31.272 145.952 76.88 201.988 37.788 48.216 110.76 71.672 160.28 72.972 138.124 2.608 196.76-169.404 200.672-238.472 16.94-3.908 45.608-13.032 65.156-19.548-15.64 211.104-145.948 320.568-271.040 320.568-117.28 0-225.436-84.704-268.44-209.804-59.94-166.8-20.848-327.084 52.124-453.488-6.512-9.12-10.424-23.456-9.12-37.792z" />
<glyph unicode="&#xe912;" glyph-name="linkedin-icon" d="M511.999 959.999c-282.771 0-511.999-229.228-511.999-511.999s229.228-511.999 511.999-511.999 512.001 229.228 512.001 511.999c-0.002 282.771-229.234 511.999-512.001 511.999zM375.397 200.472h-112.415v363.179h112.415v-363.179zM318.654 611.212c-36.713 0-66.476 30.005-66.476 67.013 0 37.012 29.767 67.015 66.476 67.015s66.472-30.003 66.472-67.015c0.002-37.010-29.761-67.013-66.472-67.013zM796.67 200.472h-111.87v190.639c0 52.287-19.861 81.474-61.205 81.474-44.997 0-68.504-30.398-68.504-81.474v-190.639h-107.818v363.179h107.818v-48.914s32.432 59.992 109.441 59.992c77.011 0 132.14-47.022 132.14-144.297l-0.002-229.96z" />
<glyph unicode="&#xe913;" glyph-name="github-icon-1" d="M510.020 946c-281.64 0-510.020-228.34-510.020-510.020 0-225.344 146.136-416.52 348.784-483.96 25.488-4.72 34.848 11.064 34.848 24.536 0 12.16-0.476 52.34-0.692 94.956-141.892-30.852-171.832 60.176-171.832 60.176-23.2 58.952-56.628 74.624-56.628 74.624-46.272 31.656 3.488 31.008 3.488 31.008 51.216-3.6 78.184-52.56 78.184-52.56 45.488-77.972 119.312-55.428 148.416-42.4 4.576 32.968 17.796 55.464 32.38 68.2-113.28 12.9-232.368 56.632-232.368 252.056 0 55.68 19.924 101.18 52.552 136.896-5.296 12.848-22.752 64.72 4.94 134.972 0 0 42.828 13.708 140.292-52.28 40.68 11.304 84.312 16.968 127.656 17.16 43.344-0.192 87.008-5.856 127.768-17.16 97.348 65.988 140.116 52.28 140.116 52.28 27.76-70.252 10.296-122.124 5-134.972 32.7-35.716 52.488-81.212 52.488-136.896 0-195.888-119.312-239.024-232.88-251.648 18.292-15.828 34.592-46.868 34.592-94.448 0-68.24-0.592-123.164-0.592-139.964 0-13.572 9.18-29.476 35.036-24.468 202.536 67.516 348.488 258.624 348.488 483.892 0 281.68-228.348 510.020-510.016 510.020zM191.020 219.464c-1.12-2.532-5.112-3.292-8.74-1.556-3.7 1.664-5.78 5.12-4.58 7.664 1.1 2.608 5.092 3.336 8.784 1.584 3.708-1.66 5.82-5.148 4.536-7.692zM216.108 197.080c-2.432-2.256-7.188-1.208-10.416 2.356-3.336 3.556-3.96 8.308-1.492 10.6 2.508 2.252 7.12 1.2 10.464-2.36 3.336-3.596 3.984-8.32 1.44-10.6zM233.32 168.44c-3.128-2.172-8.24-0.136-11.396 4.4-3.124 4.532-3.124 9.972 0.068 12.152 3.168 2.18 8.2 0.22 11.4-4.28 3.12-4.612 3.12-10.052-0.076-12.276zM262.424 135.268c-2.796-3.080-8.748-2.256-13.108 1.952-4.456 4.112-5.7 9.948-2.896 13.032 2.828 3.088 8.816 2.22 13.208-1.952 4.428-4.104 5.78-9.984 2.8-13.032zM300.040 124.068c-1.228-3.992-6.964-5.808-12.74-4.112-5.768 1.748-9.544 6.428-8.38 10.464 1.2 4.020 6.96 5.912 12.78 4.096 5.76-1.74 9.544-6.384 8.344-10.448zM342.856 119.32c0.144-4.208-4.756-7.696-10.82-7.772-6.1-0.132-11.032 3.272-11.096 7.408 0 4.248 4.788 7.704 10.884 7.804 6.064 0.12 11.032-3.26 11.032-7.44zM384.912 120.932c0.728-4.104-3.488-8.32-9.508-9.44-5.92-1.080-11.4 1.452-12.156 5.52-0.736 4.208 3.56 8.42 9.468 9.512 6.032 1.048 11.428-1.42 12.196-5.592z" />
<glyph unicode="&#xe914;" d="M3.016 449c0-76.86 75.052-148.608 193.372-189.052-23.628-118.948-4.232-214.824 60.544-252.18 66.58-38.4 165.772-11.82 259.92 70.48 91.772-78.976 184.52-110.056 249.24-72.592 66.52 38.508 86.748 140.884 62.468 263.548 123.24 40.744 192.176 101.924 192.176 179.796 0 75.076-75.188 140.024-191.916 180.208 26.14 127.732 3.992 221.28-63.468 260.18-65.036 37.504-158.864 4.816-251.984-76.224-96.88 86.016-189.78 112.276-257.168 73.268-64.976-37.612-83.516-135.232-59.812-256.38-114.328-39.86-193.372-106.28-193.372-181.052z" />
<glyph unicode="&#xe915;" d="M804.1 589.304c-5.335 2.066-15.022 5.195-24.813 8.084-3.42 3.917-1.863 10.598-0.43 17.325 22.667 110.515 8.267 196.643-40.909 224.995-47.148 27.192-124.26-1.16-202.14-68.932-8.19-7.159-15.519-13.901-22.677-20.818-4.431 4.585-9.308 9.1-14.265 13.525-82.159 72.945-163.971 103.481-213.095 75.045-47.104-27.268-61.056-108.24-41.228-209.56 2.713-14.049 5.027-24.134 7.591-34.12-12.487 0.896-23.667-2.608-34.363-6.336-95.688-33.36-156.8-85.648-156.8-139.88 0-56.016 65.6-112.2 165.272-146.264 4.443-1.71 12.583-4.319 20.808-6.728 1.766-7.573-0.697-18.449-2.855-29.435-19.517-103.304-4.753-182.356 42.227-209.456 48.524-27.98 129.964 0.78 209.268 70.1 6.268 5.48 12.56 11.292 18.86 17.384 7.581-7.323 15.537-14.601 23.688-21.662 77.56-66.73 153.424-93.422 200.364-66.25 48.48 28.064 64.232 112.988 43.776 216.312-1.56 7.892-3.38 15.952-5.42 24.16 5.72 1.688 11.332 3.432 16.808 5.248 103.616 34.328 171.028 89.828 171.028 146.592 0 54.428-63.080 107.068-160.696 140.672z" />
<glyph unicode="&#xe916;" d="M781.624 338.688c-4.94-1.636-10.012-3.216-15.18-4.748-11.44 36.212-26.88 74.72-45.768 114.5 18.028 38.84 32.868 76.852 43.988 112.832 9.244-2.68 18.22-5.5 26.868-8.48 83.64-28.788 134.656-71.36 134.656-104.16 0-34.94-55.1-80.3-144.56-109.944zM744.504 265.132c9.044-45.688 10.336-86.996 4.344-119.288-5.384-29.016-16.208-48.36-29.592-56.108-28.484-16.488-89.4 4.944-155.088 61.472-7.532 6.48-15.12 13.4-22.728 20.72 25.468 27.856 50.92 60.24 75.76 96.2 43.696 3.876 84.976 10.216 122.412 18.868 1.84-7.44 3.48-14.732 4.892-21.864zM369.104 92.584c-27.828-9.828-49.992-10.108-63.388-2.384-28.512 16.44-40.36 79.92-24.196 165.060 2.583 13.726 4.872 23.841 7.433 33.846 36.187-12.026 77.167-17.918 120.967-21.47 25.004-35.188 51.192-67.532 77.584-95.856-5.353-5.184-10.961-10.36-16.691-15.4-35.597-31.112-70.737-52.856-101.705-63.796zM238.732 338.904c-44.072 15.064-80.468 34.64-105.416 56-22.416 19.2-33.736 38.26-33.736 53.728 0 32.908 49.068 74.888 130.904 103.42 6.326 2.425 16.685 5.768 27.172 8.81 15.248-35.81 30.084-74.274 47.988-113.17-18.136-39.476-33.184-78.552-44.6-115.772-10.871 3.051-18.301 5.436-25.649 7.996zM282.436 636.384c-16.988 86.812-5.708 152.296 22.68 168.728 30.24 17.504 97.1-7.456 167.572-70.028 4.504-4 9.028-8.188 13.56-12.52-26.256-28.196-52.204-60.296-76.992-95.28-42.508-3.94-83.2-10.268-120.608-18.744-1.529 5.367-3.682 14.749-5.598 24.216zM672.304 540.116c-11.919 20.728-21.012 35.483-30.404 50.027 31.76-8.467 59.388-13.307 85.332-19.231-7.788-24.964-17.496-51.068-28.928-77.828-11.867 22.773-20.505 38.157-29.432 53.35zM513.316 694.972c17.808-19.292 35.644-40.836 53.188-64.208-16.022 0.807-34.791 1.267-53.667 1.267-18.696 0-37.288-0.451-55.763-1.344 20.166 23.256 38.154 44.768 56.242 64.284zM353.308 539.852c-5.901-9.677-14.382-24.971-22.518-40.476-14.238 20.404-23.858 46.624-31.714 71.944 25.788 5.772 53.288 10.488 81.94 14.068-6.811-10.219-15.978-25.084-24.807-40.172zM381.84 309.12c-29.6 3.304-57.516 7.78-83.296 13.392 7.98 25.768 17.812 52.552 29.296 79.792 11.144-21.716 19.661-37.018 28.517-52.097 9.054-15.413 18.441-30.564 28.167-45.474zM514.384 199.564c-18.3 19.748-36.552 41.588-54.38 65.080 17.304-0.68 34.948-1.024 52.88-1.024 18.424 0 36.636 0.412 54.56 1.212-17.6-23.92-35.372-45.792-53.060-65.268zM698.672 403.692c12.080-27.536 22.264-54.176 30.352-79.508-26.208-5.98-54.5-10.796-84.312-14.372 6.219 9.386 15.402 24.401 24.297 39.606 9.357 16.039 18.070 31.707 26.445 47.581zM639.012 375.092c-16.855-29.313-31.194-52.15-46.227-74.481-23.949 2.605-51.661 1.617-79.901 1.617-28.124 0-55.484 0.876-81.832 2.584-13.021 18.625-27.622 41.494-41.378 64.92-13.717 23.352-26.563 47.21-38.522 71.582 11.955 37.237 24.765 61.11 38.412 84.433l-2.8-5.187c16.417 28.461 30.905 51.234 46.198 73.409 24.506-1.609 52.066-0.545 79.926-0.545 27.984 0 55.58-1.072 82.452-3.12 12.566-18.154 26.964-40.848 40.579-64.057 13.433-22.814 26.401-46.558 38.616-70.749-11.825-38.492-24.759-62.456-38.491-85.896zM718.664 806.26c30.264-17.456 42.036-87.844 23.020-180.152-1.895-9.432-3.302-15.482-4.816-21.489-36.744 12.173-77.464 18.613-120.096 22.613-24.836 35.364-50.568 67.52-76.4 95.352 6.446 6.221 13.214 12.445 20.13 18.503 67.382 58.633 129.746 81.561 158.162 65.173z" />
<glyph unicode="&#xe917;" d="M512.884 529.34c44.576 0 80.708-36.136 80.708-80.708 0-44.576-36.132-80.712-80.708-80.712-44.572 0-80.708 36.136-80.708 80.712 0 44.572 36.136 80.708 80.708 80.708z" />
</font>
</defs>
</svg>
